<?xml version="1.0" encoding="UTF-8"?>
<!DOCTYPE svg PUBLIC "-//W3C//DTD SVG 1.1//EN" "http://www.w3.org/Graphics/SVG/1.1/DTD/svg11.dtd">
<!-- Creator: CorelDRAW X7 -->
<svg xmlns="http://www.w3.org/2000/svg" xml:space="preserve" width="9.07525in" height="2.0745in" version="1.1" style="shape-rendering:geometricPrecision; text-rendering:geometricPrecision; image-rendering:optimizeQuality; fill-rule:evenodd; clip-rule:evenodd"
viewBox="0 0 9211 2105"
 xmlns:xlink="http://www.w3.org/1999/xlink">
 <defs>
  <style type="text/css">
   <![CDATA[
    .fil1 {fill:#50B849;fill-rule:nonzero}
    .fil0 {fill:#684198;fill-rule:nonzero}
    .fil10 {fill:#838587;fill-rule:nonzero}
    .fil4 {fill:url(#id0)}
    .fil9 {fill:url(#id1)}
    .fil3 {fill:url(#id2)}
    .fil5 {fill:url(#id3)}
    .fil7 {fill:url(#id4)}
    .fil6 {fill:url(#id5)}
    .fil2 {fill:url(#id6)}
    .fil8 {fill:url(#id7)}
   ]]>
  </style>
  <linearGradient id="id0" gradientUnits="userSpaceOnUse" x1="1564.89" y1="1205.65" x2="1642.99" y2="1376.74">
   <stop offset="0" style="stop-opacity:1; stop-color:white"/>
   <stop offset="0.4" style="stop-opacity:1; stop-color:#B4A0CC"/>
   <stop offset="1" style="stop-opacity:1; stop-color:#684198"/>
  </linearGradient>
  <linearGradient id="id1" gradientUnits="userSpaceOnUse" x1="743.483" y1="380.362" x2="656.031" y2="255.486">
   <stop offset="0" style="stop-opacity:1; stop-color:white"/>
   <stop offset="1" style="stop-opacity:1; stop-color:#50B849"/>
  </linearGradient>
  <linearGradient id="id2" gradientUnits="userSpaceOnUse" xlink:href="#id1" x1="1741.37" y1="739.167" x2="1865.69" y2="650.445">
  </linearGradient>
  <linearGradient id="id3" gradientUnits="userSpaceOnUse" xlink:href="#id1" x1="1377.7" y1="1725.23" x2="1465.69" y2="1849.87">
  </linearGradient>
  <linearGradient id="id4" gradientUnits="userSpaceOnUse" xlink:href="#id1" x1="380.171" y1="1366.52" x2="255.67" y2="1454.81">
  </linearGradient>
  <linearGradient id="id5" gradientUnits="userSpaceOnUse" xlink:href="#id0" x1="900.613" y1="1551.33" x2="727.947" y2="1634.5">
  </linearGradient>
  <linearGradient id="id6" gradientUnits="userSpaceOnUse" x1="1221.52" y1="551.933" x2="1392.82" y2="473.184">
   <stop offset="0" style="stop-opacity:1; stop-color:white"/>
   <stop offset="1" style="stop-opacity:1; stop-color:#684198"/>
  </linearGradient>
  <linearGradient id="id7" gradientUnits="userSpaceOnUse" xlink:href="#id0" x1="556.6" y1="899.838" x2="478.411" y2="728.714">
  </linearGradient>
 </defs>
 <g id="Layer_x0020_1">
  <metadata id="CorelCorpID_0Corel-Layer"/>
  <g id="_930807304">
   <path class="fil0" d="M1245 988c47,27 99,40 153,40 40,0 81,-7 121,-22l31 -11 -23 -24c-98,-97 -109,-220 -107,-337 1,-89 1,-226 0,-332 -2,-138 -114,-271 -250,-297 -28,-6 -52,-9 -70,5 -17,15 -19,40 -19,70l0 86c0,147 0,342 1,492 0,42 4,82 10,118 16,87 74,167 153,212z"/>
   <path class="fil1" d="M2116 944c-38,-138 -127,-220 -263,-241 -30,-5 -34,-13 -33,-35 1,-13 -1,-26 -3,-38l-1 -8c-15,-122 -127,-239 -249,-261 -18,-3 -45,-5 -63,11 -18,16 -19,42 -18,60 2,34 1,70 1,105 0,15 -1,31 -1,46l1 18c0,8 0,17 0,25 -1,31 -1,62 0,94 4,171 129,300 297,308 52,2 105,2 155,2 37,0 76,-1 113,0 2,0 3,0 4,0 26,0 44,-6 55,-20 16,-20 11,-47 5,-66z"/>
   <path class="fil2" d="M1103 77c-1,178 -1,402 0,581l0 0c0,38 3,77 10,114l0 0c28,151 194,289 399,214 -101,-101 -116,-224 -113,-353l0 0c1,-96 1,-238 0,-334l0 0c-2,-130 -107,-253 -233,-277l0 0c-13,-3 -24,-4 -33,-4l0 0c-26,0 -30,15 -30,59l0 0z"/>
   <path class="fil3" d="M1544 380l0 0 0 0c-28,0 -39,15 -37,51l0 0c3,50 1,101 1,152l0 0 0 0c0,45 -1,91 0,136l0 0c4,158 121,280 277,288l0 0c51,2 103,2 154,2l0 0c38,-1 76,-1 114,0l0 0c46,1 54,-20 43,-59l0 0c-35,-127 -116,-206 -247,-226l0 0c-37,-6 -52,-21 -50,-57l0 0c0,-14 -2,-28 -4,-42l0 0c-14,-114 -120,-223 -232,-243l0 0c-7,-1 -13,-2 -19,-2z"/>
   <path class="fil0" d="M1128 1229c-26,47 -40,99 -40,153 0,40 8,81 23,121l11 31 23 -23c98,-98 220,-109 338,-107 88,1 225,1 332,0 138,-2 271,-114 297,-250 5,-28 9,-52 -6,-70 -14,-17 -40,-19 -69,-19l-86 0c-148,0 -342,0 -493,1 -41,0 -81,4 -118,10 -87,16 -166,74 -212,153z"/>
   <path class="fil1" d="M1172 2100c139,-38 220,-127 242,-263 4,-30 12,-34 35,-33 13,1 26,-1 38,-3l7 -1c123,-15 240,-127 261,-249 3,-18 6,-44 -11,-63 -16,-18 -42,-19 -59,-18 -35,2 -71,1 -105,1 -16,0 -31,-1 -46,-1l-19 1c-8,0 -16,0 -24,0 -31,-1 -63,-1 -94,0 -171,4 -300,129 -308,297 -3,52 -2,105 -2,155 0,37 0,76 -1,113 0,2 0,3 0,4 0,26 7,44 21,55 20,16 47,11 65,5z"/>
   <path class="fil4" d="M1459 1087c-39,0 -77,3 -115,10l0 0c-150,28 -289,194 -214,399 101,-101 224,-116 353,-113l0 0c97,1 239,1 335,0l0 0c129,-2 252,-107 276,-233l0 0c11,-55 4,-63 -54,-63l0 0c-92,-1 -196,-1 -300,-1l0 0c-98,0 -195,0 -281,1l0 0z"/>
   <path class="fil5" d="M1686 1491c-51,3 -102,1 -152,1l0 0 0 0c-46,0 -91,-1 -137,0l0 0c-157,4 -280,121 -287,277l0 0c-4,89 -1,179 -3,268l0 0c-1,46 21,54 59,43l0 0c128,-35 206,-116 227,-247l0 0c6,-37 21,-52 57,-50l0 0c13,0 28,-2 41,-4l0 0c114,-14 224,-120 243,-232l0 0c7,-39 -4,-56 -41,-56l0 0c-2,0 -5,0 -7,0l0 0z"/>
   <path class="fil0" d="M876 1117c-47,-26 -99,-40 -153,-40 -39,0 -80,8 -121,23l-31 11 23 23c98,98 110,220 108,338 -2,88 -2,225 0,332 2,138 114,271 249,297 28,5 53,9 70,-6 18,-14 19,-40 19,-69l0 -86c0,-148 1,-342 0,-493 -1,-42 -4,-81 -11,-118 -16,-87 -73,-166 -153,-212z"/>
   <path class="fil1" d="M5 1161c38,139 127,220 264,242 29,4 34,12 33,35 -1,13 1,26 2,38l1 7c16,123 128,240 250,261 18,3 44,6 62,-11 19,-16 20,-42 19,-59 -2,-35 -2,-71 -1,-105 0,-16 0,-31 0,-46l0 -19c0,-8 0,-16 0,-24 0,-31 0,-63 0,-95 -5,-170 -130,-299 -298,-307 -52,-3 -104,-2 -155,-2 -37,0 -75,0 -113,-1 -1,0 -2,0 -4,0 -26,0 -44,7 -55,21 -15,20 -10,47 -5,65z"/>
   <path class="fil6" d="M609 1119c101,101 116,224 114,353l0 0c-2,97 -2,239 0,335l0 0c2,129 106,252 232,276l0 0c56,11 64,4 64,-54l0 0c0,-179 1,-403 0,-581l0 0c-1,-39 -4,-77 -11,-115l0 0c-22,-121 -134,-235 -284,-235l0 0c-37,0 -75,7 -115,21l0 0z"/>
   <path class="fil7" d="M25 1155c35,128 116,206 247,227l0 0c37,6 52,21 51,57l0 0c-1,13 1,27 3,41l0 0c14,114 121,224 232,243l0 0c42,7 59,-5 56,-48l0 0c-2,-51 0,-102 0,-152l0 0 0 0c0,-46 1,-92 -1,-137l0 0c-4,-157 -120,-280 -277,-287l0 0c-51,-2 -102,-2 -154,-2l0 0c-38,0 -76,0 -113,-1l0 0c-1,0 -3,0 -4,0l0 0c-43,0 -50,22 -40,59l0 0z"/>
   <path class="fil0" d="M993 876c27,-47 40,-99 40,-152 0,-40 -7,-81 -22,-122l-11 -31 -24 23c-98,98 -220,110 -338,108 -88,-2 -225,-2 -331,0 -138,2 -271,114 -297,249 -6,28 -9,53 5,70 15,18 40,19 70,19l86 0c147,0 342,1 492,0 42,-1 82,-4 118,-11 87,-16 167,-73 212,-153z"/>
   <path class="fil1" d="M949 5c-138,38 -220,127 -241,264 -5,29 -13,34 -35,33 -13,-1 -26,1 -38,2l-8 1c-122,16 -240,128 -261,250 -3,18 -5,44 11,62 16,19 42,20 60,19 34,-2 70,-2 105,-1 15,0 31,0 46,0l18 0c8,0 16,0 25,0 31,0 62,0 94,0 170,-5 300,-130 308,-298 2,-52 2,-104 2,-155 0,-37 -1,-75 0,-113 0,-1 0,-2 0,-4 0,-26 -6,-44 -20,-55 -20,-15 -47,-10 -66,-5z"/>
   <path class="fil8" d="M638 723c-96,-2 -238,-2 -334,0l0 0c-130,2 -253,106 -277,232l0 0c-11,56 -4,64 54,64l0 0c179,0 403,1 582,0l0 0c38,-1 77,-4 114,-11l0 0c151,-28 289,-193 214,-399l0 0c-101,101 -224,116 -353,114l0 0z"/>
   <path class="fil9" d="M981 21l0 0c-8,0 -16,2 -26,4l0 0c-127,35 -206,116 -226,247l0 0c-6,37 -21,52 -57,51l0 0c-14,-1 -28,1 -42,3l0 0c-114,14 -223,121 -243,232l0 0c-7,42 5,59 49,57l0 0c50,-3 101,-1 152,-1l0 0 0 0c45,0 91,1 136,-1l0 0c158,-4 280,-120 288,-277l0 0c4,-89 0,-178 2,-267l0 0c1,-35 -11,-48 -33,-48z"/>
   <path class="fil10" d="M2509 1674l0 -1c0,-55 42,-101 101,-101 34,0 55,9 75,27l-22 26c-15,-13 -30,-21 -55,-21 -36,0 -63,31 -63,69l0 0c0,41 26,70 66,70 19,0 36,-6 48,-15l0 -36 -51 0 0 -30 84 0 0 82c-19,17 -47,31 -82,31 -61,0 -101,-44 -101,-101z"/>
   <path class="fil10" d="M2898 1687c-2,-22 -15,-39 -37,-39 -21,0 -35,16 -38,39l75 0zm-109 11l0 -1c0,-42 30,-77 72,-77 47,0 71,37 71,80 0,3 0,6 -1,9l-108 0c3,24 21,38 42,38 17,0 29,-6 40,-18l20 18c-14,17 -33,28 -60,28 -43,0 -76,-31 -76,-77z"/>
   <path class="fil10" d="M3037 1730l0 -77 -18 0 0 -30 18 0 0 -40 34 0 0 40 40 0 0 30 -40 0 0 72c0,13 7,19 18,19 8,0 15,-2 21,-6l0 28c-8,5 -17,8 -30,8 -25,0 -43,-11 -43,-44z"/>
   <polygon class="fil10" points="3362,1575 3396,1575 3396,1657 3490,1657 3490,1575 3524,1575 3524,1771 3490,1771 3490,1689 3396,1689 3396,1771 3362,1771 "/>
   <path class="fil10" d="M3727 1718l0 -10c-9,-3 -20,-6 -34,-6 -22,0 -35,9 -35,25l0 0c0,15 13,23 29,23 23,0 40,-13 40,-32zm-102 11l0 -1c0,-32 25,-47 61,-47 17,0 29,2 40,6l0 -4c0,-21 -13,-32 -37,-32 -16,0 -28,4 -42,9l-9 -26c16,-8 32,-12 56,-12 22,0 39,5 49,16 11,11 16,26 16,46l0 87 -33 0 0 -18c-10,12 -26,21 -48,21 -28,0 -53,-16 -53,-45z"/>
   <path class="fil10" d="M3852 1752l15 -23c16,12 33,18 48,18 15,0 23,-6 23,-16l0 0c0,-12 -15,-16 -33,-21 -22,-6 -46,-15 -46,-43l0 -1c0,-28 23,-45 53,-45 18,0 38,6 54,17l-13 24c-15,-9 -30,-14 -42,-14 -13,0 -21,6 -21,14l0 1c0,11 16,15 33,21 22,7 46,16 46,43l0 1c0,31 -24,46 -55,46 -21,0 -44,-8 -62,-22z"/>
   <path class="fil10" d="M4073 1730l0 -77 -19 0 0 -30 19 0 0 -40 33 0 0 40 40 0 0 30 -40 0 0 72c0,13 7,19 19,19 7,0 14,-2 21,-6l0 28c-9,5 -18,8 -31,8 -25,0 -42,-11 -42,-44z"/>
   <path class="fil10" d="M4347 1623l36 0 -59 152c-12,31 -25,42 -49,42 -14,0 -24,-4 -35,-9l12 -25c6,3 13,5 20,5 9,0 15,-4 21,-17l-62 -148 36 0 42 110 38 -110z"/>
   <path class="fil10" d="M4441 1798c17,-4 25,-13 24,-27l-15 0 0 -38 37 0 0 32c0,31 -15,45 -43,47l-3 -14z"/>
   <polygon class="fil10" points="4744,1575 4889,1575 4889,1606 4779,1606 4779,1657 4877,1657 4877,1688 4779,1688 4779,1740 4891,1740 4891,1771 4744,1771 "/>
   <path class="fil10" d="M5084 1718l0 -10c-9,-3 -20,-6 -34,-6 -22,0 -35,9 -35,25l0 0c0,15 13,23 29,23 23,0 40,-13 40,-32zm-102 11l0 -1c0,-32 25,-47 61,-47 17,0 29,2 40,6l0 -4c0,-21 -13,-32 -37,-32 -16,0 -28,4 -42,9l-9 -26c16,-8 32,-12 56,-12 22,0 39,5 49,16 11,11 16,26 16,46l0 87 -33 0 0 -18c-10,12 -26,21 -48,21 -28,0 -53,-16 -53,-45z"/>
   <path class="fil10" d="M5226 1730l0 -77 -18 0 0 -30 18 0 0 -40 34 0 0 40 40 0 0 30 -40 0 0 72c0,13 7,19 18,19 8,0 15,-2 21,-6l0 28c-8,5 -17,8 -30,8 -25,0 -43,-11 -43,-44z"/>
   <polygon class="fil10" points="5599,1607 5537,1607 5537,1575 5696,1575 5696,1607 5634,1607 5634,1771 5599,1771 "/>
   <path class="fil10" d="M5852 1718l0 -10c-8,-3 -20,-6 -33,-6 -22,0 -35,9 -35,25l0 0c0,15 13,23 29,23 22,0 39,-13 39,-32zm-101 11l0 -1c0,-32 25,-47 61,-47 17,0 28,2 40,6l0 -4c0,-21 -13,-32 -37,-32 -16,0 -29,4 -42,9l-9 -26c16,-8 32,-12 56,-12 22,0 38,5 49,16 11,11 16,26 16,46l0 87 -33 0 0 -18c-11,12 -26,21 -49,21 -27,0 -52,-16 -52,-45z"/>
   <path class="fil10" d="M5977 1752l16 -23c16,12 33,18 48,18 15,0 23,-6 23,-16l0 0c0,-12 -16,-16 -33,-21 -22,-6 -46,-15 -46,-43l0 -1c0,-28 23,-45 52,-45 19,0 39,6 55,17l-14 24c-14,-9 -29,-14 -41,-14 -14,0 -21,6 -21,14l0 1c0,11 16,15 33,21 22,7 46,16 46,43l0 1c0,31 -24,46 -55,46 -21,0 -44,-8 -63,-22z"/>
   <path class="fil10" d="M6198 1730l0 -77 -18 0 0 -30 18 0 0 -40 34 0 0 40 40 0 0 30 -40 0 0 72c0,13 7,19 18,19 8,0 15,-2 21,-6l0 28c-8,5 -17,8 -30,8 -25,0 -43,-11 -43,-44z"/>
   <path class="fil10" d="M6473 1623l35 0 -58 152c-12,31 -25,42 -49,42 -14,0 -25,-4 -35,-9l11 -25c7,3 13,5 20,5 10,0 16,-4 21,-17l-61 -148 36 0 42 110 38 -110z"/>
   <path class="fil0" d="M2673 445l590 0 0 -144 -662 0c-19,0 -36,7 -51,21l0 0c-14,13 -22,31 -22,50l0 1070 145 0 0 -552 445 0 43 -144 -488 0 0 -301z"/>
   <path class="fil0" d="M3352 718c-69,74 -104,179 -104,310l0 414 145 0 0 -414c0,-91 22,-161 64,-208 42,-47 102,-70 185,-70l21 0 0 -145 -21 0c-123,0 -221,38 -290,113z"/>
   <path class="fil0" d="M3865 955c10,-64 36,-113 77,-148 46,-39 112,-59 195,-59 84,0 150,20 196,59 41,35 67,84 78,148l-546 0zm272 -352c-132,0 -237,38 -311,113 -74,75 -112,179 -112,310l0 2c0,131 38,235 112,309 74,75 179,112 310,112 127,0 230,-36 305,-108l15 -15 -101 -104 -15 15c-47,45 -115,67 -204,67 -83,0 -147,-19 -193,-58 -41,-34 -67,-83 -77,-146l622 0c19,0 36,-7 50,-20 15,-14 22,-32 22,-52l0 -2c0,-131 -37,-235 -111,-310 -75,-75 -179,-113 -312,-113z"/>
   <path class="fil0" d="M5149 668c-56,-43 -131,-65 -224,-65 -95,0 -170,22 -226,65 -57,44 -86,105 -86,182 0,46 10,85 28,114 19,29 43,53 73,71 28,17 60,30 95,40 34,8 67,16 100,23 40,9 73,17 99,24 23,7 42,14 55,23 11,7 19,14 22,22 4,9 6,21 6,35 0,21 -4,38 -13,50 -10,14 -22,24 -38,32 -16,8 -34,14 -53,17 -42,6 -83,6 -125,0 -20,-3 -38,-9 -54,-17 -16,-8 -27,-18 -37,-32 -8,-12 -13,-29 -13,-50l0 -21 -145 0 0 21c0,77 29,139 86,183 56,42 131,64 226,64 93,0 168,-22 224,-64 57,-44 86,-106 86,-183 0,-45 -10,-83 -28,-112 -19,-29 -43,-53 -73,-71 -28,-17 -60,-30 -96,-39 -33,-8 -67,-16 -99,-23 -42,-8 -76,-17 -101,-26 -24,-8 -42,-16 -55,-24 -10,-7 -17,-14 -20,-22 -3,-9 -5,-21 -5,-35 0,-21 5,-38 13,-50 10,-13 21,-23 36,-30 16,-8 35,-14 55,-17 43,-6 83,-6 125,0 20,3 38,9 54,17 15,7 27,17 37,30 9,13 13,30 13,50l0 21 144 0 0 -21c0,-77 -29,-138 -86,-182z"/>
   <path class="fil0" d="M6025 719l0 0c-34,-37 -76,-65 -125,-85 -48,-19 -103,-29 -163,-29 -60,0 -115,9 -162,28 -32,12 -61,28 -87,48l0 -424 -145 0 0 1185 145 0 0 -414c0,-91 22,-161 64,-208 42,-47 103,-70 185,-70 81,0 142,23 184,70 42,47 63,117 63,208l0 414 145 0 0 -414c0,-65 -9,-124 -27,-176 -18,-52 -44,-97 -77,-133z"/>
   <polygon class="fil0" points="6311,1442 6456,1442 6456,257 6311,257 "/>
   <polygon class="fil0" points="7254,619 6994,1206 6735,619 6577,619 6916,1385 6714,1844 6872,1844 7412,619 "/>
   <path class="fil1" d="M7683 303l-141 0 0 1066c0,19 7,36 21,50 14,14 30,21 49,21l655 0 43 -141 -627 0 0 -996z"/>
   <path class="fil1" d="M8790 1306c-92,0 -163,-24 -210,-71 -46,-46 -70,-117 -70,-209 0,-92 24,-162 70,-209 47,-47 118,-71 210,-71 92,0 162,24 209,71 47,47 71,117 71,209 0,92 -24,163 -71,210 -47,46 -117,70 -209,70zm310 -589c-74,-74 -178,-112 -310,-112 -132,0 -236,38 -310,112 -74,75 -111,178 -111,309 0,132 37,236 111,310 74,74 178,111 310,111 132,0 236,-37 310,-111 73,-74 111,-178 111,-310 0,-131 -38,-234 -111,-309z"/>
  </g>
 </g>
</svg>
