<?xml version="1.0" encoding="UTF-8"?>
<!DOCTYPE svg PUBLIC "-//W3C//DTD SVG 1.1//EN" "http://www.w3.org/Graphics/SVG/1.1/DTD/svg11.dtd">
<!-- Creator: CorelDRAW X7 -->
<svg xmlns="http://www.w3.org/2000/svg" xml:space="preserve" width="100mm" height="100mm" version="1.1" style="shape-rendering:geometricPrecision; text-rendering:geometricPrecision; image-rendering:optimizeQuality; fill-rule:evenodd; clip-rule:evenodd"
viewBox="0 0 10000 10000"
 xmlns:xlink="http://www.w3.org/1999/xlink">
 <defs>
  <style type="text/css">
   <![CDATA[
    .fil1 {fill:#33B329;fill-rule:nonzero}
    .fil0 {fill:#525252;fill-rule:nonzero}
   ]]>
  </style>
 </defs>
 <g id="Layer_x0020_1">
  <metadata id="CorelCorpID_0Corel-Layer"/>
  <g id="_2668474216976">
   <path class="fil0" d="M5756 4741c186,107 394,161 609,161 159,0 322,-30 484,-89l124 -46 -94 -93c-389,-391 -435,-880 -427,-1351 6,-352 6,-900 -1,-1327 -8,-551 -455,-1084 -995,-1188 -111,-22 -209,-35 -278,23 -70,58 -76,160 -76,278l0 343c-1,590 -2,1369 2,1969 1,168 15,327 42,474 64,348 292,665 610,846z"/>
   <path class="fil1" d="M9230 4567c-153,-555 -507,-881 -1052,-967 -117,-18 -134,-49 -131,-139 3,-53 -4,-104 -10,-153l-4 -29c-62,-491 -508,-959 -995,-1044 -72,-13 -177,-22 -250,43 -73,65 -77,167 -73,239 7,138 5,281 4,419 -1,62 -2,124 -2,185l2 73c-1,33 -1,65 -1,98 -1,124 -2,251 1,377 18,682 516,1200 1186,1231 207,9 416,9 619,8 148,0 301,-1 450,3 5,0 10,0 15,0 104,0 176,-28 219,-84 62,-79 42,-186 22,-260z"/>
   <path class="fil0" d="M5270 5746c-106,187 -160,395 -160,610 0,160 29,324 89,486l45 124 94 -93c389,-391 877,-437 1346,-429 352,6 898,6 1324,-1 549,-8 1080,-456 1184,-998 22,-112 35,-209 -22,-279 -58,-70 -160,-76 -278,-76l-342 0c-588,-1 -1365,-2 -1964,2 -167,1 -326,15 -472,42 -347,65 -663,293 -844,612z"/>
   <path class="fil1" d="M5444 9230c554,-153 878,-508 964,-1056 18,-116 49,-134 139,-130 53,2 103,-4 152,-11l29 -4c490,-61 957,-509 1041,-998 13,-72 22,-177 -43,-250 -65,-73 -167,-77 -238,-73 -138,7 -280,5 -418,4 -61,-1 -123,-2 -184,-2l-73 1c-33,0 -65,0 -98,0 -123,-1 -250,-2 -376,1 -680,17 -1196,517 -1227,1189 -10,207 -9,417 -8,621 0,148 1,301 -3,451 0,5 0,10 0,15 0,104 27,177 83,220 79,62 186,42 260,22z"/>
   <path class="fil0" d="M4244 5259c-186,-107 -394,-161 -609,-161 -159,0 -322,30 -484,89l-124 46 94 93c389,391 435,880 427,1351 -6,352 -6,900 1,1327 8,551 455,1084 995,1188 111,22 209,35 278,-23 70,-57 76,-160 76,-278l0 -343c1,-590 2,-1369 -2,-1969 -1,-168 -15,-327 -42,-474 -64,-348 -292,-665 -610,-846z"/>
   <path class="fil1" d="M770 5433c153,555 507,881 1052,967 117,18 134,49 131,139 -3,53 4,104 10,153l4 29c62,491 508,959 995,1044 72,13 177,22 250,-43 73,-65 77,-167 73,-239 -7,-138 -5,-281 -4,-419 1,-62 2,-124 2,-185l-1 -73c0,-33 0,-65 0,-98 1,-124 2,-251 -1,-377 -18,-682 -516,-1200 -1186,-1231 -207,-9 -416,-9 -619,-8 -148,0 -301,1 -450,-3 -5,0 -10,0 -15,0 -104,0 -176,28 -219,84 -62,79 -42,186 -22,260z"/>
   <path class="fil0" d="M4730 4254c106,-187 160,-395 160,-610 0,-160 -30,-324 -89,-486l-45 -124 -94 93c-389,391 -877,437 -1346,429 -352,-6 -898,-6 -1324,1 -549,8 -1080,456 -1184,998 -22,112 -35,209 22,279 58,70 160,76 278,76l342 0c588,1 1365,2 1964,-2 167,-1 326,-15 472,-42 347,-65 663,-293 844,-612z"/>
   <path class="fil1" d="M4556 770c-554,153 -878,508 -964,1056 -18,116 -49,134 -139,130 -53,-2 -103,4 -152,11l-29 4c-490,61 -957,509 -1041,998 -13,72 -22,177 43,250 65,73 167,77 238,73 138,-7 280,-5 418,-4 61,1 123,2 184,2l73 -1c33,0 65,0 98,0 123,1 250,2 376,-1 680,-17 1196,-517 1227,-1189 10,-207 9,-417 8,-621 0,-148 -1,-301 3,-451 0,-5 0,-10 0,-15 0,-104 -27,-177 -83,-220 -79,-62 -186,-42 -260,-22z"/>
  </g>
 </g>
</svg>
