<?xml version="1.0" encoding="UTF-8"?>
<!DOCTYPE svg PUBLIC "-//W3C//DTD SVG 1.1//EN" "http://www.w3.org/Graphics/SVG/1.1/DTD/svg11.dtd">
<!-- Creator: CorelDRAW X7 -->
<svg xmlns="http://www.w3.org/2000/svg" xml:space="preserve" width="260mm" height="70mm" version="1.1" style="shape-rendering:geometricPrecision; text-rendering:geometricPrecision; image-rendering:optimizeQuality; fill-rule:evenodd; clip-rule:evenodd"
viewBox="0 0 26000 7000"
 xmlns:xlink="http://www.w3.org/1999/xlink">
 <defs>
  <style type="text/css">
   <![CDATA[
    .fil2 {fill:#898989;fill-rule:nonzero}
    .fil1 {fill:#33B329;fill-rule:nonzero}
    .fil3 {fill:#525252;fill-rule:nonzero}
    .fil0 {fill:#525252;fill-rule:nonzero}
   ]]>
  </style>
 </defs>
 <g id="Layer_x0020_1">
  <metadata id="CorelCorpID_0Corel-Layer"/>
  <path class="fil0" d="M3751 3348c110,63 232,94 359,94 93,0 189,-17 284,-52l73 -27 -55 -55c-229,-230 -256,-517 -251,-794 4,-208 4,-530 0,-781 -5,-324 -268,-638 -586,-699 -65,-13 -123,-20 -163,13 -42,34 -45,95 -45,164l0 202c-1,347 -1,805 1,1158 1,99 9,193 25,279 38,205 172,391 358,498z"/>
  <path class="fil1" d="M5795 3245c-90,-326 -298,-518 -619,-568 -69,-11 -79,-29 -76,-82 1,-32 -3,-61 -7,-90l-2 -17c-36,-289 -299,-565 -586,-614 -42,-8 -103,-13 -146,25 -43,38 -45,98 -43,140 4,82 3,166 2,247 0,36 -1,73 -1,109l1 43c0,19 0,38 -1,57 0,73 -1,148 1,222 10,401 304,706 698,724 121,6 245,5 364,5 87,0 177,-1 265,1 3,1 5,1 8,1 62,0 104,-17 129,-50 37,-46 25,-109 13,-153z"/>
  <path class="fil0" d="M3466 3939c-63,110 -94,232 -94,359 0,94 17,190 52,285l27 74 54 -55c229,-230 516,-257 793,-252 206,3 528,3 778,-1 323,-5 636,-269 697,-587 13,-66 20,-123 -13,-164 -34,-41 -94,-45 -163,-45l-202 0c-346,-1 -803,-1 -1155,1 -98,1 -192,9 -278,25 -204,38 -390,172 -496,360z"/>
  <path class="fil1" d="M3568 5988c326,-90 517,-299 567,-621 11,-68 29,-79 82,-76 31,1 61,-3 89,-7l17 -2c289,-36 563,-300 613,-587 7,-43 13,-104 -26,-147 -38,-43 -98,-46 -139,-43 -82,4 -165,3 -246,2 -37,-1 -73,-1 -109,-1l-43 1c-19,0 -38,-1 -57,-1 -73,0 -147,-1 -221,1 -400,10 -704,304 -722,700 -6,121 -5,245 -5,365 0,87 1,177 -2,265 0,3 0,6 0,9 0,61 16,104 49,129 47,37 110,25 153,13z"/>
  <path class="fil0" d="M2862 3652c-109,-63 -231,-94 -358,-94 -93,0 -189,17 -285,52l-73 27 55 55c230,230 257,517 252,794 -4,208 -4,530 0,781 5,324 268,638 586,699 65,13 123,20 163,-13 41,-34 45,-95 45,-164l0 -202c1,-347 1,-805 -1,-1158 -1,-99 -9,-193 -25,-279 -38,-205 -172,-391 -359,-498z"/>
  <path class="fil1" d="M819 3755c89,326 298,518 619,568 68,11 79,29 76,82 -1,32 3,61 7,90l2 17c36,289 299,565 585,614 43,8 104,13 147,-25 43,-38 45,-98 43,-140 -4,-82 -3,-166 -2,-247 0,-36 1,-73 1,-109l-1 -43c0,-19 0,-38 0,-57 1,-73 1,-148 0,-222 -11,-401 -304,-706 -698,-724 -121,-6 -245,-5 -364,-5 -87,0 -177,1 -265,-1 -3,0 -6,-1 -8,-1 -62,0 -104,17 -130,50 -36,46 -24,109 -12,153z"/>
  <path class="fil0" d="M3148 3061c63,-110 94,-232 94,-359 0,-94 -17,-190 -52,-285l-27 -74 -55 55c-229,230 -516,258 -792,253 -207,-4 -528,-4 -778,0 -323,5 -636,269 -697,587 -13,66 -20,123 13,164 34,41 94,45 163,45l202 0c346,1 803,1 1155,-1 98,-1 192,-9 277,-25 205,-38 390,-172 497,-360z"/>
  <path class="fil1" d="M3046 1012c-326,90 -517,299 -567,621 -11,68 -29,79 -82,76 -31,-1 -61,3 -90,7l-17 2c-288,36 -562,300 -612,587 -7,43 -13,104 25,147 38,43 98,46 140,43 81,-4 165,-3 246,-2 36,1 73,1 109,1l42 -1c20,0 39,1 58,1 72,0 147,1 221,-1 400,-10 704,-304 722,-699 6,-122 5,-246 5,-365 0,-88 -1,-178 1,-266 0,-3 0,-6 0,-9 0,-61 -16,-104 -49,-129 -46,-37 -109,-25 -152,-13z"/>
  <g id="_2668298847408">
   <g>
    <path class="fil2" d="M6693 5299l0 -2c0,-151 116,-280 279,-280 95,0 153,26 208,74l-60 72c-42,-36 -83,-58 -152,-58 -99,0 -175,87 -175,191l0 1c0,111 73,193 184,193 51,0 97,-16 131,-41l0 -101 -139 0 0 -83 231 0 0 228c-54,45 -130,84 -226,84 -170,0 -281,-121 -281,-278z"/>
    <path class="fil2" d="M7770 5335c-6,-60 -41,-108 -103,-108 -57,0 -98,45 -106,108l209 0zm-302 30l0 -1c0,-117 83,-213 200,-213 130,0 195,102 195,220 0,8 0,17 -1,26l-300 0c10,66 57,104 117,104 46,0 78,-17 111,-49l55 49c-39,46 -92,76 -167,76 -119,0 -210,-86 -210,-212z"/>
    <path class="fil2" d="M8155 5455l0 -215 -52 0 0 -81 52 0 0 -112 93 0 0 112 110 0 0 81 -110 0 0 200c0,37 19,51 51,51 21,0 39,-4 58,-14l0 77c-23,13 -49,21 -85,21 -68,0 -117,-30 -117,-120z"/>
    <polygon class="fil2" points="9052,5026 9147,5026 9147,5251 9405,5251 9405,5026 9501,5026 9501,5568 9405,5568 9405,5340 9147,5340 9147,5568 9052,5568 "/>
    <path class="fil2" d="M10060 5421l0 -28c-24,-9 -56,-16 -93,-16 -60,0 -96,25 -96,68l0 1c0,40 35,62 80,62 62,0 109,-35 109,-87zm-280 29l0 -1c0,-88 69,-132 168,-132 46,0 79,7 110,17l0 -10c0,-58 -35,-89 -101,-89 -46,0 -80,10 -117,26l-25 -74c45,-20 89,-33 154,-33 61,0 107,16 136,46 30,29 44,72 44,126l0 242 -92 0 0 -51c-27,33 -70,59 -133,59 -76,0 -144,-44 -144,-126z"/>
    <path class="fil2" d="M10406 5514l41 -63c45,33 92,50 134,50 40,0 64,-17 64,-44l0 -1c0,-32 -44,-43 -92,-58 -60,-17 -127,-41 -127,-119l0 -2c0,-77 64,-124 145,-124 51,0 107,17 150,46l-37 66c-39,-24 -81,-38 -115,-38 -37,0 -57,17 -57,40l0 2c0,30 44,42 92,57 59,19 126,46 126,120l0 1c0,86 -66,129 -151,129 -58,0 -122,-21 -173,-62z"/>
    <path class="fil2" d="M11016 5455l0 -215 -52 0 0 -81 52 0 0 -112 93 0 0 112 110 0 0 81 -110 0 0 200c0,37 19,51 51,51 21,0 39,-4 58,-14l0 77c-24,13 -49,21 -85,21 -68,0 -117,-30 -117,-120z"/>
    <path class="fil2" d="M11775 5159l98 0 -163 420c-32,84 -68,115 -134,115 -39,0 -68,-9 -97,-25l32 -69c17,9 35,15 55,15 26,0 42,-12 58,-46l-170 -410 100 0 115 304 106 -304z"/>
    <path class="fil2" d="M12033 5641c47,-10 69,-34 66,-73l-40 0 0 -107 103 0 0 91c0,85 -41,122 -119,129l-10 -40z"/>
    <polygon class="fil2" points="12872,5026 13273,5026 13273,5112 12967,5112 12967,5252 13239,5252 13239,5337 12967,5337 12967,5483 13277,5483 13277,5568 12872,5568 "/>
    <path class="fil2" d="M13810 5421l0 -28c-24,-9 -55,-16 -93,-16 -60,0 -96,25 -96,68l0 1c0,40 35,62 80,62 62,0 109,-35 109,-87zm-280 29l0 -1c0,-88 69,-132 169,-132 45,0 78,7 110,17l0 -10c0,-58 -36,-89 -102,-89 -45,0 -79,10 -116,26l-25 -74c45,-20 89,-33 154,-33 61,0 106,16 135,46 30,29 44,72 44,126l0 242 -91 0 0 -51c-28,33 -71,59 -133,59 -77,0 -145,-44 -145,-126z"/>
    <path class="fil2" d="M14205 5455l0 -215 -52 0 0 -81 52 0 0 -112 93 0 0 112 110 0 0 81 -110 0 0 200c0,37 19,51 50,51 21,0 40,-4 59,-14l0 77c-24,13 -49,21 -85,21 -69,0 -117,-30 -117,-120z"/>
    <polygon class="fil2" points="15235,5115 15063,5115 15063,5026 15502,5026 15502,5115 15331,5115 15331,5568 15235,5568 "/>
    <path class="fil2" d="M15935 5421l0 -28c-24,-9 -56,-16 -93,-16 -60,0 -96,25 -96,68l0 1c0,40 35,62 80,62 62,0 109,-35 109,-87zm-280 29l0 -1c0,-88 69,-132 168,-132 46,0 79,7 110,17l0 -10c0,-58 -35,-89 -101,-89 -46,0 -80,10 -117,26l-25 -74c45,-20 89,-33 154,-33 61,0 107,16 136,46 30,29 44,72 44,126l0 242 -92 0 0 -51c-27,33 -70,59 -133,59 -76,0 -144,-44 -144,-126z"/>
    <path class="fil2" d="M16281 5514l41 -63c45,33 92,50 134,50 40,0 64,-17 64,-44l0 -1c0,-32 -44,-43 -92,-58 -60,-17 -127,-41 -127,-119l0 -2c0,-77 64,-124 145,-124 51,0 107,17 150,46l-37 66c-39,-24 -81,-38 -115,-38 -37,0 -57,17 -57,40l0 2c0,30 44,42 92,57 59,19 126,46 126,120l0 1c0,86 -66,129 -151,129 -58,0 -122,-21 -173,-62z"/>
    <path class="fil2" d="M16891 5455l0 -215 -52 0 0 -81 52 0 0 -112 93 0 0 112 110 0 0 81 -110 0 0 200c0,37 19,51 51,51 21,0 39,-4 58,-14l0 77c-24,13 -49,21 -85,21 -68,0 -117,-30 -117,-120z"/>
    <path class="fil2" d="M17650 5159l98 0 -163 420c-32,84 -69,115 -134,115 -39,0 -68,-9 -97,-25l32 -69c17,9 35,15 55,15 26,0 42,-12 58,-46l-170 -410 100 0 115 304 106 -304z"/>
   </g>
   <path class="fil3" d="M7125 4239l0 -1182 1112 0c0,0 237,13 237,-401l-1349 0 0 -831 1331 0c0,0 294,7 298,-396l-1830 0c-53,0 -100,19 -139,56l0 0c-40,38 -61,86 -61,140l0 2956c0,0 401,-23 401,-342z"/>
   <path class="fil3" d="M9115 4247l0 -811c0,-251 59,-445 175,-575 117,-130 284,-193 512,-193 276,0 249,-401 249,-401l-249 0c-340,0 -609,106 -801,313 -190,206 -287,494 -287,856l0 1145c0,0 401,7 401,-334z"/>
   <path class="fil3" d="M10419 3236c28,-177 100,-314 213,-410 127,-107 309,-162 539,-162 231,0 413,55 540,162 113,96 186,234 216,410l-1508 0zm1312 778c-129,124 -318,186 -564,186 -227,0 -407,-54 -533,-160 -112,-94 -184,-230 -214,-404l1720 0c53,0 100,-19 140,-56 39,-38 60,-88 60,-144l0 -4c0,-363 -104,-651 -309,-858 -205,-206 -494,-311 -860,-311 -365,0 -655,105 -860,311 -205,207 -308,495 -308,858l0 4c0,363 104,651 308,856 205,205 493,309 856,309 352,0 636,-101 843,-300l149 -154c-189,-282 -428,-133 -428,-133z"/>
   <path class="fil3" d="M12923 4057c18,42 59,66 101,87 44,23 94,38 150,47 117,18 230,18 345,0 54,-8 104,-24 148,-47 42,-22 76,-50 103,-88 25,-34 38,-80 38,-138 0,-39 -6,-72 -17,-97 -10,-22 -31,-42 -61,-62 -36,-22 -87,-43 -153,-62 -70,-20 -163,-42 -274,-66 -89,-19 -181,-41 -274,-65 -97,-26 -186,-63 -265,-110 -82,-49 -149,-115 -199,-195 -52,-82 -78,-188 -78,-315 0,-213 80,-382 237,-504 153,-119 363,-179 624,-179 257,0 466,60 619,179 157,122 237,291 237,504l0 58c0,0 -318,5 -434,-196 -27,-37 -60,-65 -102,-85 -44,-22 -94,-37 -149,-46 -116,-18 -227,-18 -345,0 -56,9 -107,24 -151,46 -42,20 -74,47 -100,84 -24,34 -36,81 -36,139 0,38 5,71 15,97 7,20 26,40 54,59 35,22 86,45 153,68 69,23 162,47 279,71 89,19 181,40 274,64 97,24 186,60 265,107 82,49 149,115 199,196 52,82 78,186 78,310 0,213 -80,383 -237,505 -153,118 -362,178 -619,178 -261,0 -471,-60 -624,-178 -157,-122 -237,-292 -237,-505l0 -58c0,0 328,-66 436,197z"/>
   <path class="fil3" d="M17580 1630l0 2562c0,396 -401,389 -401,389l0 -3274c0,0 401,-32 401,323z"/>
   <path class="fil3" d="M18825 5438l1396 -3130c-395,-68 -531,227 -531,227l-624 1393 -634 -1422c-114,-266 -518,-198 -518,-198l938 2117 -559 1267c0,0 385,39 532,-254z"/>
   <path class="fil1" d="M22703 4185l-1733 0 -1 -2454c-6,-294 -388,-297 -388,-297l0 2946c0,53 19,99 58,137 38,39 84,58 137,58l1479 0c0,0 347,-33 448,-390z"/>
   <path class="fil1" d="M24030 4206c-255,0 -449,-66 -579,-196 -129,-129 -195,-324 -195,-578 0,-254 66,-449 195,-578 130,-130 324,-196 579,-196 254,0 448,66 578,196 130,129 195,324 195,578 0,254 -65,449 -195,578 -130,130 -324,196 -578,196zm856 -1628c-204,-205 -492,-309 -856,-309 -365,0 -653,104 -857,309 -204,205 -307,493 -307,854 0,364 104,652 307,856 204,204 492,308 857,308 364,0 652,-104 856,-308 204,-204 307,-492 307,-856 0,-361 -103,-649 -307,-854z"/>
   <path class="fil3" d="M14905 4291l0 -855c0,-251 59,-445 176,-575 116,-130 284,-193 512,-193 225,0 391,63 507,193 117,130 176,324 176,575l0 807c0,0 -23,338 400,338l0 -1145c0,-178 -25,-341 -74,-485 -50,-145 -122,-269 -215,-369l0 0c-93,-101 -209,-179 -343,-233 -134,-54 -285,-82 -451,-82 -166,0 -317,26 -449,77 -88,34 -168,79 -239,134l0 -815c0,-325 -400,-356 -400,-356l0 3274c0,0 400,40 400,-290z"/>
  </g>
 </g>
</svg>
